<svg version="1.1" xmlns="http://www.w3.org/2000/svg" xmlns:xlink="http://www.w3.org/1999/xlink" x="0px" y="0px"
viewBox="0 0 64 64" style="enable-background:new 0 0 64 64;" xml:space="preserve">
<style type="text/css">
.st0{fill:#18181B;}
.st1{fill:#E6C001;}
</style>
<g id="Layer_1">
<rect class="st0" width="64" height="64"/>
</g>
<g id="Layer_2">
<g>
<path class="st1" d="M26.6,7.3C26.8,6.4,27.2,6,27.7,6s1,0.5,1.3,1.4c0.4,0.9,0.6,2.1,0.6,3.4v1c0,2.2,0.3,8.2,0.9,18
C30.8,34.9,31,39,31,42.3c0,4-0.3,7.1-0.9,9.2c-0.6,2.1-1.6,3.9-3.1,5.4c-2,2-4.1,3.1-6.2,3.1c-2.4,0-5-1.4-7.8-4.2
c-3.5-3.5-5.3-7.4-5.3-11.5c0-2.2,0.5-4.1,1.6-5.7l2-2.9l0.6,4.9c0.3,2.8,1.3,5.7,2.9,8.4c1.6,2.8,3.1,4.4,4.6,4.8
c0.2,0.1,0.5,0.1,0.9,0.1c1.3,0,2.5-0.4,3.5-1.1c1-0.7,1.6-1.8,1.9-3.3c0.2-1.5,0.3-5.3,0.3-11.3c0-5.2-0.1-8.6-0.2-10.1
c-0.1-1.5-0.4-2.3-0.9-2.3c-0.2,0-0.5,0.1-0.7,0.3c-1.2,0.5-3.2,0.9-5.9,1.2c-0.9,0.1-1.5,0.2-1.8,0.2c-1,0-1.8-0.2-2.5-0.7
c-0.7-0.5-1.7-1.4-2.9-2.8c-1.4-1.5-2.3-2.9-2.8-4.1c-0.5-1.2-0.7-2.8-0.7-4.6c0-3.1,0.4-4.9,1.1-5.4C8.8,9.8,8.9,9.7,9,9.7
c0.5,0,0.8,0.8,0.8,2.5c0,2.6,1,5,3,7.5c2,2.4,4.1,3.6,6.2,3.6c3.6,0,5.8-3.1,6.6-9.3C25.9,10.6,26.3,8.4,26.6,7.3z"/>
<path class="st1" d="M48.2,4.6C49,4.2,49.8,4,50.6,4c2,0,3.5,1.2,4.6,3.5c1.1,2.4,1.6,5.7,1.6,10c0,4.8-0.8,8.7-2.5,11.6
c-1.6,2.9-3.8,4.4-6.4,4.4c-0.7,0-1.4-0.1-2-0.3c-0.5-0.1-0.7-0.2-0.9-0.2c-0.7,0-1,1.1-1,3.4c0,1.6,0.1,4.1,0.3,7.5
c0.2,2.7,0.3,4.9,0.3,6.6c0,3.2-0.3,5-0.9,5.4c-0.1,0.1-0.3,0.2-0.6,0.2c-0.9,0-1.5-1.7-2-5.2c-0.5-3.5-0.9-9.6-1.2-18.4
c-0.2-5.3-0.3-9.6-0.3-13c0-2.4,0.1-4.1,0.3-4.9c0.2-0.8,0.6-1.2,1.1-1.2c0.5,0,1.1-0.4,1.8-1.2c0.7-0.8,1.4-1.8,2-2.9
c0.6-1.2,1.2-2.3,1.9-3.2C47.2,5.3,47.8,4.7,48.2,4.6z M52.9,12c-0.5-2.4-1.3-3.7-2.2-3.7c-1.1,0-2.2,1.3-3.3,3.9
c-1.1,2.6-1.9,5.9-2.3,9.8c-0.2,1.8-0.3,3.2-0.3,4.3c0,1.6,0.5,2.6,1.4,2.9c0.2,0.1,0.6,0.2,1,0.2c1.6,0,3.1-1.3,4.3-4
c1.2-2.6,1.8-5.7,1.8-9.2C53.3,15.1,53.1,13.6,52.9,12z"/>
</g>
</g>
</svg>